<svg xmlns="http://www.w3.org/2000/svg" data-name="Capa 1" viewBox="0 0 34.6 34.6"><path fill="#fff" d="M17.3 0a17.3 17.3 0 1 0 17.3 17.3A17.31 17.31 0 0 0 17.3 0Zm-1.5 22a.87.87 0 0 1-.6.9c-.1.1-.2.1-.4.1a.91.91 0 0 1-.7-.3L5.8 15v7a.94.94 0 0 1-1 1 .94.94 0 0 1-1-1v-9.4a.87.87 0 0 1 .6-.9.91.91 0 0 1 1.1.2l8.3 7.8v-7a.94.94 0 0 1 1-1 .87.87 0 0 1 1 .9Zm12-1.2a3.76 3.76 0 0 1-3.4 2.2 3.6 3.6 0 0 1-3.4-2.2L17.5 13a1 1 0 0 1 1.8-.8l3.6 7.8a1.63 1.63 0 0 0 3 0l3.6-7.8a1 1 0 0 1 1.3-.5 1 1 0 0 1 .6 1.3Z"/></svg>